# xmcd
#
# Track frame offsets:
#	150
#	13001
#	24592
#	39745
#	54722
#	76727
#	105658
#	127959
#	156882
#	159779
#	177055
#	195193
#	213106
#	226917
#
# Disc length: 3250 seconds
#
# Revision: 1
# Processed by: cddbd v1.5.2PL0 Copyright (c) Steve Scherf et al.
# Submitted via: audiograbber 1.83.01
#
DISCID=9c0cb00e
DTITLE=Defacing-Anvil Of Doom-Visceral Damage - Demo Split
DYEAR=2003
DGENRE=Death Grind
TTITLE0=Defacing - Atrocities That Testify Dementia
TTITLE1=Defacing - Delirium Of Moibund Addiction
TTITLE2=Defacing - Remember The Infanticide
TTITLE3=Defacing - Resurrected In Excretive Substances
TTITLE4=Anvil Of Doom - Millenium
TTITLE5=Anvil Of Doom - ...Waiting
TTITLE6=Anvil Of Doom - H3
TTITLE7=Anvil Of Doom - Anvil Of Doom
TTITLE8=Visceral Damage - Intro
TTITLE9=Visceral Damage - Cannibal Semen
TTITLE10=Visceral Damage - Masturbation Party
TTITLE11=Visceral Damage - Cooking Under Skin
TTITLE12=Visceral Damage - Maggots Under Skin
TTITLE13=Visceral Damage - Visceral Damage
EXTD=
EXTT0=
EXTT1=
EXTT2=
EXTT3=
EXTT4=
EXTT5=
EXTT6=
EXTT7=
EXTT8=
EXTT9=
EXTT10=
EXTT11=
EXTT12=
EXTT13=
PLAYORDER=
